{
    "asset" : {
        "generator" : "Khronos glTF Blender I/O v3.4.50",
        "version" : "2.0"
    },
    "extensionsUsed" : [
        "KHR_materials_unlit",
        "KHR_materials_specular",
        "KHR_materials_ior"
    ],
    "scene" : 0,
    "scenes" : [
        {
            "name" : "Scene",
            "nodes" : [
                0
            ]
        }
    ],
    "nodes" : [
        {
            "mesh" : 0,
            "name" : "JET (1).stl",
            "rotation" : [
                0.256543904542923,
                0,
                0,
                0.9665325880050659
            ],
            "scale" : [
                0.0024020683486014605,
                0.0024020683486014605,
                0.0024020683486014605
            ]
        }
    ],
    "materials" : [
        {
            "doubleSided" : true,
            "extensions" : {
                "KHR_materials_unlit" : {}
            },
            "name" : "Jet",
            "pbrMetallicRoughness" : {
                "baseColorTexture" : {
                    "index" : 0,
                    "texCoord" : 0
                },
                "metallicFactor" : 0,
                "roughnessFactor" : 0.9
            }
        },
        {
            "alphaMode" : "BLEND",
            "doubleSided" : true,
            "extensions" : {
                "KHR_materials_specular" : {
                    "specularColorFactor" : [
                        0.2716282948149811,
                        0.2716282948149811,
                        0.2716282948149811
                    ]
                },
                "KHR_materials_ior" : {
                    "ior" : 1.4500000476837158
                }
            },
            "name" : "glass",
            "pbrMetallicRoughness" : {
                "baseColorFactor" : [
                    0.016206955537199974,
                    0.016206955537199974,
                    0.016206955537199974,
                    0.30000001192092896
                ],
                "metallicFactor" : 0,
                "roughnessFactor" : 0.1709090918302536
            }
        }
    ],
    "meshes" : [
        {
            "name" : "JET (1).stl",
            "primitives" : [
                {
                    "attributes" : {
                        "POSITION" : 0,
                        "TEXCOORD_0" : 1,
                        "NORMAL" : 2
                    },
                    "indices" : 3,
                    "material" : 0
                },
                {
                    "attributes" : {
                        "POSITION" : 4,
                        "TEXCOORD_0" : 5,
                        "NORMAL" : 6
                    },
                    "indices" : 7,
                    "material" : 1
                }
            ]
        }
    ],
    "textures" : [
        {
            "sampler" : 0,
            "source" : 0
        }
    ],
    "images" : [
        {
            "mimeType" : "image/png",
            "name" : "jet light",
            "uri" : "jet%20light.png"
        }
    ],
    "accessors" : [
        {
            "bufferView" : 0,
            "componentType" : 5126,
            "count" : 194168,
            "max" : [
                127.00202941894531,
                214.94187927246094,
                136.274658203125
            ],
            "min" : [
                -128.42848205566406,
                -31.871559143066406,
                -133.43179321289062
            ],
            "type" : "VEC3"
        },
        {
            "bufferView" : 1,
            "componentType" : 5126,
            "count" : 194168,
            "type" : "VEC2"
        },
        {
            "bufferView" : 2,
            "componentType" : 5126,
            "count" : 194168,
            "type" : "VEC3"
        },
        {
            "bufferView" : 3,
            "componentType" : 5125,
            "count" : 854874,
            "type" : "SCALAR"
        },
        {
            "bufferView" : 4,
            "componentType" : 5126,
            "count" : 21773,
            "max" : [
                123.41706848144531,
                129.50572204589844,
                1.7227134704589844
            ],
            "min" : [
                -123.39824676513672,
                -17.186792373657227,
                -140.87124633789062
            ],
            "type" : "VEC3"
        },
        {
            "bufferView" : 5,
            "componentType" : 5126,
            "count" : 21773,
            "type" : "VEC2"
        },
        {
            "bufferView" : 6,
            "componentType" : 5126,
            "count" : 21773,
            "type" : "VEC3"
        },
        {
            "bufferView" : 7,
            "componentType" : 5123,
            "count" : 86916,
            "type" : "SCALAR"
        }
    ],
    "bufferViews" : [
        {
            "buffer" : 0,
            "byteLength" : 2330016,
            "byteOffset" : 0,
            "target" : 34962
        },
        {
            "buffer" : 0,
            "byteLength" : 1553344,
            "byteOffset" : 2330016,
            "target" : 34962
        },
        {
            "buffer" : 0,
            "byteLength" : 2330016,
            "byteOffset" : 3883360,
            "target" : 34962
        },
        {
            "buffer" : 0,
            "byteLength" : 3419496,
            "byteOffset" : 6213376,
            "target" : 34963
        },
        {
            "buffer" : 0,
            "byteLength" : 261276,
            "byteOffset" : 9632872,
            "target" : 34962
        },
        {
            "buffer" : 0,
            "byteLength" : 174184,
            "byteOffset" : 9894148,
            "target" : 34962
        },
        {
            "buffer" : 0,
            "byteLength" : 261276,
            "byteOffset" : 10068332,
            "target" : 34962
        },
        {
            "buffer" : 0,
            "byteLength" : 173832,
            "byteOffset" : 10329608,
            "target" : 34963
        }
    ],
    "samplers" : [
        {
            "magFilter" : 9729,
            "minFilter" : 9987
        }
    ],
    "buffers" : [
        {
            "byteLength" : 10503440,
            "uri" : "jet.bin"
        }
    ]
}
